<svg xmlns="http://www.w3.org/2000/svg" viewBox="0 0 720 260" role="img" aria-labelledby="logoTitle logoDesc">
  <title id="logoTitle">Semperficon logo</title>
  <desc id="logoDesc">Semperficon wordmark with a construction crane and yellow and red building accents.</desc>
  <defs>
    <style>
      .stroke { fill: none; stroke: #111111; stroke-linecap: round; stroke-linejoin: round; stroke-width: 10; }
      .fill-ink { fill: #111111; }
      .fill-yellow { fill: #f2cf2f; }
      .fill-red { fill: #e34a34; }
      .window { fill: #ffffff; }
    </style>
  </defs>

  <text
    x="8"
    y="170"
    class="fill-ink"
    font-family="'Arial Black', 'Segoe UI', sans-serif"
    font-size="84"
    letter-spacing="1.6"
  >
    SEMPERFICON
  </text>

  <g transform="translate(360 10)">
    <path class="stroke" d="M108 18h88l40 31h-69l-24 10H60z" />
    <path class="stroke" d="M165 18h30l35 31h-30c0-17-13-31-35-31z" />
    <rect x="130" y="18" width="12" height="12" class="fill-ink" />
    <rect x="154" y="18" width="12" height="12" class="fill-ink" />

    <rect x="154" y="46" width="26" height="36" rx="4" class="stroke" />
    <path class="stroke" d="M167 58v24" />
    <path class="stroke" d="M120 81c0-21 17-38 38-38h30" />

    <rect x="46" y="58" width="262" height="34" class="stroke" />
    <path class="stroke" d="M76 58l-30 34" />
    <path class="stroke" d="M122 58l-30 34" />
    <path class="stroke" d="M168 58l-30 34" />
    <path class="stroke" d="M214 58l-30 34" />
    <path class="stroke" d="M260 58l-30 34" />

    <path class="stroke" d="M46 58v130" />
    <path class="stroke" d="M46 160v26" />
    <path class="stroke" d="M46 188a16 16 0 1 0 0.1 0" />

    <rect x="230" y="88" width="38" height="136" class="stroke" />
    <path class="stroke" d="M230 112l38-24" />
    <path class="stroke" d="M230 148l38-24" />
    <path class="stroke" d="M230 184l38-24" />
    <path class="stroke" d="M230 220l38-24" />
    <rect x="248" y="58" width="12" height="30" class="fill-ink" />

    <rect x="104" y="168" width="38" height="56" class="fill-yellow" />
    <rect x="144" y="168" width="18" height="56" class="fill-red" />
    <rect x="164" y="168" width="18" height="56" class="fill-red" />
    <rect x="96" y="160" width="94" height="74" class="stroke" />
    <rect x="108" y="178" width="10" height="12" class="window" />
    <rect x="108" y="198" width="10" height="12" class="window" />
    <rect x="108" y="218" width="10" height="12" class="window" />
    <rect x="148" y="178" width="20" height="8" class="window" />
    <rect x="148" y="194" width="20" height="8" class="window" />
    <rect x="148" y="210" width="20" height="8" class="window" />
    <rect x="104" y="232" width="58" height="6" class="fill-yellow" />

    <rect x="46" y="220" width="40" height="36" class="stroke" />
    <rect x="222" y="224" width="116" height="18" rx="3" class="stroke" />
    <rect x="290" y="206" width="34" height="18" class="stroke" />
    <rect x="48" y="242" width="288" height="12" rx="4" class="fill-ink" />
  </g>
</svg>

