<svg xmlns="http://www.w3.org/2000/svg" viewBox="0 0 1180 260" role="img" aria-labelledby="logoTitle logoDesc">
  <title id="logoTitle">Semperficon logo</title>
  <desc id="logoDesc">Semperficon wordmark with a construction crane and yellow and red building accents.</desc>
  <defs>
    <style>
      .stroke {
        fill: none;
        stroke: #111111;
        stroke-linecap: round;
        stroke-linejoin: round;
        stroke-width: 10;
      }

      .ink {
        fill: #111111;
      }

      .yellow {
        fill: #f2cf2f;
      }

      .red {
        fill: #e34a34;
      }

      .window {
        fill: #ffffff;
      }
    </style>
  </defs>

  <text
    x="0"
    y="174"
    class="ink"
    font-family="'Arial Black', 'Segoe UI', sans-serif"
    font-size="96"
    letter-spacing="1.5"
  >
    SEMPERFICON
  </text>

  <g transform="translate(790 8)">
    <path class="stroke" d="M110 18h88l42 32h-72l-24 10H60z" />
    <path class="stroke" d="M166 18h32l34 32h-31c0-18-14-32-35-32z" />
    <rect x="132" y="18" width="12" height="12" class="ink" />
    <rect x="156" y="18" width="12" height="12" class="ink" />

    <rect x="154" y="48" width="28" height="34" rx="4" class="stroke" />
    <path class="stroke" d="M168 58v24" />
    <path class="stroke" d="M120 82c0-22 18-39 39-39h29" />

    <rect x="44" y="60" width="270" height="34" class="stroke" />
    <path class="stroke" d="M76 60 44 94" />
    <path class="stroke" d="M122 60 90 94" />
    <path class="stroke" d="M168 60 136 94" />
    <path class="stroke" d="M214 60 182 94" />
    <path class="stroke" d="M260 60 228 94" />

    <path class="stroke" d="M46 60v124" />
    <path class="stroke" d="M46 184v18" />
    <circle cx="46" cy="210" r="16" class="stroke" />

    <rect x="232" y="92" width="40" height="132" class="stroke" />
    <path class="stroke" d="M232 116l40-24" />
    <path class="stroke" d="M232 150l40-24" />
    <path class="stroke" d="M232 184l40-24" />
    <path class="stroke" d="M232 218l40-24" />
    <rect x="248" y="60" width="12" height="32" class="ink" />

    <rect x="100" y="160" width="98" height="78" class="stroke" />
    <rect x="108" y="168" width="40" height="58" class="yellow" />
    <rect x="150" y="168" width="18" height="58" class="red" />
    <rect x="170" y="168" width="18" height="58" class="red" />
    <rect x="112" y="178" width="10" height="12" class="window" />
    <rect x="112" y="198" width="10" height="12" class="window" />
    <rect x="112" y="218" width="10" height="12" class="window" />
    <rect x="152" y="178" width="20" height="8" class="window" />
    <rect x="152" y="194" width="20" height="8" class="window" />
    <rect x="152" y="210" width="20" height="8" class="window" />
    <rect x="108" y="230" width="58" height="6" class="yellow" />

    <rect x="48" y="222" width="38" height="34" class="stroke" />
    <rect x="224" y="226" width="122" height="16" rx="3" class="stroke" />
    <rect x="292" y="208" width="32" height="18" class="stroke" />
    <rect x="50" y="244" width="296" height="12" rx="4" class="ink" />
  </g>
</svg>
